<svg id="Layer_1" data-name="Layer 1" xmlns="http://www.w3.org/2000/svg" viewBox="0 0 250 247.53"><title>Tty</title><path d="M63.28,103.76l13.11-8.19A18.11,18.11,0,0,0,83.5,73.05l-8.44-19.9a7.77,7.77,0,0,1,4.68-10.41,151.8,151.8,0,0,1,88.36-1.36A7.77,7.77,0,0,1,173,51.87l-7.12,16.81A18.12,18.12,0,0,0,173,91.2l13.11,8.19a18.14,18.14,0,0,0,22.4-2.45l29.24-28.77a8.25,8.25,0,0,0,2.23-4,6,6,0,0,0,0-6c-9.73-16.48-25.47-30.43-45.53-40.35-20.31-10-44-15.35-68.39-15.35C100.61,2.47,76.13,8.2,55.28,19,34.63,29.77,18.92,44.74,9.86,62.32a6,6,0,0,0-.66,2.73,5.63,5.63,0,0,0,0,.71c0,.31-.05.62-.05.93a8.17,8.17,0,0,0,2.47,5.85L40.89,101.3A18.11,18.11,0,0,0,63.28,103.76Z" transform="translate(0 -2.47)"/><rect y="116.09" width="32.51" height="32.51" rx="11.44" ry="11.44"/><rect x="54.37" y="116.09" width="32.51" height="32.51" rx="11.44" ry="11.44"/><rect x="108.75" y="116.09" width="32.51" height="32.51" rx="11.44" ry="11.44"/><rect x="163.12" y="116.09" width="32.51" height="32.51" rx="11.44" ry="11.44"/><rect x="217.49" y="116.09" width="32.51" height="32.51" rx="11.44" ry="11.44"/><rect y="215.03" width="32.51" height="32.51" rx="11.44" ry="11.44"/><path d="M183.3,217.49H66.7a12.33,12.33,0,0,0-12.33,12.33v7.85A12.33,12.33,0,0,0,66.7,250H183.3a12.33,12.33,0,0,0,12.33-12.33v-7.85A12.33,12.33,0,0,0,183.3,217.49Z" transform="translate(0 -2.47)"/><rect x="217.49" y="215.03" width="32.51" height="32.51" rx="11.44" ry="11.44"/><rect x="27.19" y="163.91" width="32.51" height="32.51" rx="11.44" ry="11.44"/><rect x="81.56" y="163.91" width="32.51" height="32.51" rx="11.44" ry="11.44"/><rect x="135.93" y="163.91" width="32.51" height="32.51" rx="11.44" ry="11.44"/><rect x="190.31" y="163.91" width="32.51" height="32.51" rx="11.44" ry="11.44"/></svg>